# xmcd
#
# Track frame offsets: 
#        225
#        11084
#        25293
#        53324
#        80493
#        93602
#        107036
#        120516
#        138450
#        151863
#        166313
#        178977
#        194695
#        211359
#        222872
#        236771
#        253294
#        274543
#
# Disc length: 4029 seconds
#
# Revision: 7
# Processed by: cddbd v1.5.2PL0 Copyright (c) Steve Scherf et al.
# Submitted via: ExactAudioCopyFreeDBPlugin 1.0
#
DISCID=010fba12
DTITLE=Various Artist - Dixieland - The Album - CD 1
DYEAR=1999
DGENRE=Jazz
TTITLE0=The New Orleans Rhythm Kings - Tiger Rag
TTITLE1=Eddie Condon and His Dixieland Band - Louisiana
TTITLE2=Louis Armstrong - Muskrat Ramble
TTITLE3=Kid Ory's Creole Jazz Band - Eh, La Bas
TTITLE4=Kenny Ball and His Jazzmen - Midnight In Moscow
TTITLE5=The Dutch Swing College Band - Bad, Bad Leroy Brown
TTITLE6=New Orleans Stompers - La Fleur Blanche
TTITLE7=Wilbur de Paris and His New Orleans Jazz - Battle Hymn Of The Re
TTITLE7=public
TTITLE8=Henry Allen and His New York Orchestra - Pleasin' Paul
TTITLE9=Jelly-Roll Morton Trio - Turtle Twist
TTITLE10=King Oliver's Jazz Band - Sweet Lovin' Man
TTITLE11=Eddie Condon and His Orchestra Band - Ol' Man river
TTITLE12=The New Orleans Feetwarmer - Maple Leaf Rag
TTITLE13=Jones and Collins Astoria Eight - Astoria Strout
TTITLE14=Rod Mason - Bugly Boy March
TTITLE15=Mr. Acker Bilk - Da Da Strain
TTITLE16=Ray Foxley - The Entertainer
TTITLE17=Ken Colver - Under The Bamboo Time
EXTD=YEAR: 1999
EXTT0=
EXTT1=
EXTT2=
EXTT3=
EXTT4=
EXTT5=
EXTT6=
EXTT7=
EXTT8=
EXTT9=
EXTT10=
EXTT11=
EXTT12=
EXTT13=
EXTT14=
EXTT15=
EXTT16=
EXTT17=
PLAYORDER=
